<svg id="Layer_1" data-name="Layer 1" xmlns="http://www.w3.org/2000/svg" xmlns:xlink="http://www.w3.org/1999/xlink" viewBox="0 0 598 809.68"><defs><style>.cls-1{fill:none;}.cls-2{clip-path:url(#clip-path);}.cls-3{fill:#231f20;}.cls-4{opacity:0.88;}</style><clipPath id="clip-path" transform="translate(-148 58.96)"><path class="cls-1" d="M196,192.38l3.21,4.61,2.57,2.78,3.48,2.71,1.09,7.53.15,6.05,0,6.51,5.12,2.92-1.93,7.28-1,6-6-1.12-4.27,8.15,4.38,4.75-1.93,4.29-1.71,7.07-3,3.64L185,269.2l1.93,7.72L182,278.2l-1.72,4.5-3,3,.43,10.93-4.5,8.57-14.78,1.5-1.08,12-.64,7.07,1.72,6.43-2.58,4.72-.42,7.07,2.61,4.31-2.4,2.33.13,5.74-1.42.9v7.08l1.72,2.35.86,11.36,3.15,7.74-2.51,1.47L158,404.2l-1.93,3.22.86,11.14,1.92,4.5-1.71,5.79-1.07,7.82v1.93L212.35,436s39.53,0,55.61,27.65,13.82,19.28,19.6,36.64,7.4,19.61,7.4,19.61a34.59,34.59,0,0,0,11.57,12.85c7.71,4.83,21.21,11.25,51.1,5.47s28.29-5.14,43.4-7.39,17.35-5.15,28-2.25l3.54-5.79-1.61-6.11-1-1.44-1.61-2.41-1-3.22,8.36,7.07,4.82,2.9,12.22-21.54s2.25-3.86,3.85-11.57,2.25-11.25,2.25-11.25l-2.89-4.5,1.61-3.54s.32-5.14,3.86-5.14,4.5-6.75,15.75-15.11l3.53-5.78,3.22-.65,1.6-2.89,2.9-1.61,3.53-3.85,5.47-2.25,4.5-13.5,4.5,1.93,13.17-10.93,1.93,1.93v4.82l14.79-.65,3.21-6.1,2.25-6.43s0,5.46,4.82,5.78,9.33,5.47,8.68,8.68,5.79,3.22,5.79,3.22,3.86-2.57,4.18,13.5l1.6,2.89,12.54-.32a5.13,5.13,0,0,0,2.89-4.5c.32-3.54,1.61-3.54,5.15-3.86l2.25-6.75v-3.86s-2.9-3.85,14.78-12.53v-4.18l-5.14-4.82,11.89-14.47v-7.39l9-12.53s-1.28-9.65,2.57-10V338.31s10.29-1.61,7.4-9c0,0,.64-2.58,8.67-1.61a38.26,38.26,0,0,0,6.43-7.07h4.82L652.38,303s5.79-9.64,1.93-13.18,11.57-8,14.15-7.71,3.21-13.5,3.21-13.5V255.7s4.5-3.21,8-3.21,4.17-14.79,4.17-16.07,2.9-12.22,11.9-24.75,1.6-5.47,1.6-5.47,10-11.25,10.93-11.25,10,1.93,10,1.93,14.46-12.86,19-12.86,0-10.28,0-10.28,8-25.39-5.46-32.79H717.63l-4.82-35.35L689.67,72.17l-15.11,1.6-6.1,7.08L654.63,83.1l-8.35,6.42L641.78,96,635,102.06l-9.32,1.61-11.25-1.29S599.35,89.2,585.21,90.49s-41.79-1.61-41.79-1.61a59.52,59.52,0,0,0-48.54,29.25l-33.1-1L448,112.67l-6.11-8.36H435.1l-8-7.07-9.64-5.14-13.18-.65-19.93,12.22L376,102.06l-5.47,5.79s-12.86,6.75-18-12.54l-19-20.25s-6.11-2.57-10.29.32l-28-11.25s-9.65,0-13.5,6.43l-19.61,1S240.31,66.7,231,84.7h-5.46l.32,17.36s-9,25.07-24.11,29.25h0c-1.39,33.11.49,10.87.49,10.87l-.81,6.49s-.11,8.78.54,9.75-2.15,7.28-2.15,7.28l2.35,6.7-3.85,2.3L193,186.49l3,5.89"/></clipPath><image id="image" width="30" height="30" xlink:href="../AppData/Local/Temp/icons8_marker_30px.png"/></defs><g class="cls-2"><rect class="cls-3" width="598" height="3"/><rect class="cls-3" y="7.26" width="598" height="3"/><rect class="cls-3" y="14.52" width="598" height="3"/><rect class="cls-3" y="21.78" width="598" height="3"/><rect class="cls-3" y="21.78" width="598" height="3"/><rect class="cls-3" y="29.04" width="598" height="3"/><rect class="cls-3" y="36.29" width="598" height="3"/><rect class="cls-3" y="43.55" width="598" height="3"/><rect class="cls-3" y="50.81" width="598" height="3"/><rect class="cls-3" y="58.07" width="598" height="3"/><rect class="cls-3" y="65.33" width="598" height="3"/><rect class="cls-3" y="72.59" width="598" height="3"/><rect class="cls-3" y="72.59" width="598" height="3"/><rect class="cls-3" y="79.85" width="598" height="3"/><rect class="cls-3" y="87.11" width="598" height="3"/><rect class="cls-3" y="94.37" width="598" height="3"/><rect class="cls-3" y="101.62" width="598" height="3"/><rect class="cls-3" y="108.88" width="598" height="3"/><rect class="cls-3" y="116.14" width="598" height="3"/><rect class="cls-3" y="123.4" width="598" height="3"/><rect class="cls-3" y="123.4" width="598" height="3"/><rect class="cls-3" y="130.66" width="598" height="3"/><rect class="cls-3" y="137.92" width="598" height="3"/><rect class="cls-3" y="145.18" width="598" height="3"/><rect class="cls-3" y="152.44" width="598" height="3"/><rect class="cls-3" y="159.7" width="598" height="3"/><rect class="cls-3" y="166.96" width="598" height="3"/><rect class="cls-3" y="174.21" width="598" height="3"/><rect class="cls-3" y="174.21" width="598" height="3"/><rect class="cls-3" y="181.47" width="598" height="3"/><rect class="cls-3" y="188.73" width="598" height="3"/><rect class="cls-3" y="195.99" width="598" height="3"/><rect class="cls-3" y="203.25" width="598" height="3"/><rect class="cls-3" y="210.51" width="598" height="3"/><rect class="cls-3" y="217.77" width="598" height="3"/><rect class="cls-3" y="225.03" width="598" height="3"/><rect class="cls-3" y="225.03" width="598" height="3"/><rect class="cls-3" y="232.29" width="598" height="3"/><rect class="cls-3" y="239.54" width="598" height="3"/><rect class="cls-3" y="246.8" width="598" height="3"/><rect class="cls-3" y="254.06" width="598" height="3"/><rect class="cls-3" y="261.32" width="598" height="3"/><rect class="cls-3" y="268.58" width="598" height="3"/><rect class="cls-3" y="275.84" width="598" height="3"/><rect class="cls-3" y="275.84" width="598" height="3"/><rect class="cls-3" y="283.1" width="598" height="3"/><rect class="cls-3" y="290.36" width="598" height="3"/><rect class="cls-3" y="297.62" width="598" height="3"/><rect class="cls-3" y="304.87" width="598" height="3"/><rect class="cls-3" y="312.13" width="598" height="3"/><rect class="cls-3" y="319.39" width="598" height="3"/><rect class="cls-3" y="326.65" width="598" height="3"/><rect class="cls-3" y="326.65" width="598" height="3"/><rect class="cls-3" y="333.91" width="598" height="3"/><rect class="cls-3" y="341.17" width="598" height="3"/><rect class="cls-3" y="348.43" width="598" height="3"/><rect class="cls-3" y="355.69" width="598" height="3"/><rect class="cls-3" y="362.95" width="598" height="3"/><rect class="cls-3" y="370.21" width="598" height="3"/><rect class="cls-3" y="377.46" width="598" height="3"/><rect class="cls-3" y="377.46" width="598" height="3"/><rect class="cls-3" y="384.72" width="598" height="3"/><rect class="cls-3" y="391.98" width="598" height="3"/><rect class="cls-3" y="399.24" width="598" height="3"/><rect class="cls-3" y="407.44" width="598" height="3"/><rect class="cls-3" y="414.7" width="598" height="3"/><rect class="cls-3" y="421.96" width="598" height="3"/><rect class="cls-3" y="429.21" width="598" height="3"/><rect class="cls-3" y="429.21" width="598" height="3"/><rect class="cls-3" y="436.47" width="598" height="3"/><rect class="cls-3" y="443.73" width="598" height="3"/><rect class="cls-3" y="450.99" width="598" height="3"/><rect class="cls-3" y="458.25" width="598" height="3"/><rect class="cls-3" y="465.51" width="598" height="3"/><rect class="cls-3" y="472.77" width="598" height="3"/><rect class="cls-3" y="480.03" width="598" height="3"/><rect class="cls-3" y="480.03" width="598" height="3"/><rect class="cls-3" y="487.29" width="598" height="3"/><rect class="cls-3" y="494.54" width="598" height="3"/><rect class="cls-3" y="501.8" width="598" height="3"/><rect class="cls-3" y="509.06" width="598" height="3"/><rect class="cls-3" y="516.32" width="598" height="3"/><rect class="cls-3" y="523.58" width="598" height="3"/><rect class="cls-3" y="530.84" width="598" height="3"/><rect class="cls-3" y="530.84" width="598" height="3"/><rect class="cls-3" y="538.1" width="598" height="3"/><rect class="cls-3" y="545.36" width="598" height="3"/><rect class="cls-3" y="552.62" width="598" height="3"/><rect class="cls-3" y="559.87" width="598" height="3"/><rect class="cls-3" y="567.13" width="598" height="3"/><rect class="cls-3" y="574.39" width="598" height="3"/><rect class="cls-3" y="581.65" width="598" height="3"/><rect class="cls-3" y="581.65" width="598" height="3"/><rect class="cls-3" y="588.91" width="598" height="3"/><rect class="cls-3" y="596.17" width="598" height="3"/><rect class="cls-3" y="603.43" width="598" height="3"/><rect class="cls-3" y="610.69" width="598" height="3"/><rect class="cls-3" y="617.95" width="598" height="3"/><rect class="cls-3" y="625.21" width="598" height="3"/><rect class="cls-3" y="632.46" width="598" height="3"/><rect class="cls-3" y="632.46" width="598" height="3"/><rect class="cls-3" y="639.72" width="598" height="3"/><rect class="cls-3" y="646.98" width="598" height="3"/><rect class="cls-3" y="654.24" width="598" height="3"/><rect class="cls-3" y="661.5" width="598" height="3"/><rect class="cls-3" y="668.76" width="598" height="3"/><rect class="cls-3" y="676.02" width="598" height="3"/><rect class="cls-3" y="683.28" width="598" height="3"/><rect class="cls-3" y="683.28" width="598" height="3"/><rect class="cls-3" y="690.54" width="598" height="3"/><rect class="cls-3" y="697.79" width="598" height="3"/><rect class="cls-3" y="705.05" width="598" height="3"/><rect class="cls-3" y="712.31" width="598" height="3"/><rect class="cls-3" y="719.57" width="598" height="3"/><rect class="cls-3" y="726.83" width="598" height="3"/><rect class="cls-3" y="734.09" width="598" height="3"/><rect class="cls-3" y="734.09" width="598" height="3"/><rect class="cls-3" y="741.35" width="598" height="3"/><rect class="cls-3" y="748.61" width="598" height="3"/><rect class="cls-3" y="755.87" width="598" height="3"/><rect class="cls-3" y="763.12" width="598" height="3"/><rect class="cls-3" y="770.38" width="598" height="3"/><rect class="cls-3" y="777.64" width="598" height="3"/><rect class="cls-3" y="784.9" width="598" height="3"/><rect class="cls-3" y="784.9" width="598" height="3"/><rect class="cls-3" y="792.16" width="598" height="3"/><rect class="cls-3" y="799.42" width="598" height="3"/><rect class="cls-3" y="806.68" width="598" height="3"/></g><use class="cls-4" transform="translate(37.1 444.77) scale(1.56)" xlink:href="#image"/><use class="cls-4" transform="translate(137.32 490.87) scale(1.59)" xlink:href="#image"/><use class="cls-4" transform="translate(220.83 499.9) scale(1.56)" xlink:href="#image"/><use class="cls-4" transform="translate(211.83 321.08) scale(1.56)" xlink:href="#image"/></svg>